<svg version="1.2" baseProfile="tiny-ps" xmlns="http://www.w3.org/2000/svg" viewBox="0 0 446 446" width="446" height="446">
	<title>1-svg</title>
	<style>
		tspan { white-space:pre }
		.shp0 { fill: #727171;stroke: #000000;stroke-width: 3 } 
		.shp1 { fill: #00afec;stroke: #000000;stroke-width: 3 } 
		.shp2 { fill: #b5b5b6;stroke: #000000;stroke-width: 3 } 
		.shp3 { fill: #898989;stroke: #000000;stroke-width: 3 } 
		.shp4 { fill: #ffffff;stroke: #000000;stroke-width: 3 } 
		.shp5 { fill: none } 
		.shp6 { fill: #009944 } 
		.shp7 { fill: #000000 } 
		.shp8 { fill: none;stroke: #000000 } 
		.shp9 { fill: #fffef2 } 
		.shp10 { fill: #fcc800;stroke: #fcc800 } 
		.shp11 { fill: #fcc800;stroke: #fcc800;stroke-width: 1 } 
	</style>
	<g id="電腦">
		<g id="Layer">
			<g id="Layer">
				<g id="Layer">
					<path id="Layer" class="shp0" d="M392.66 300.69L205.01 300.69L54.12 300.69L54.12 72.29L392.66 72.29L392.66 300.69Z" />
					<path id="Layer" class="shp1" d="M69.43 82.62L377.34 82.62L377.34 290.36L69.43 290.36L69.43 82.62Z" />
					<path id="Layer" class="shp2" d="M223.57 358.96L436.59 358.96L392.83 300.35L54.29 300.35L10.53 358.96L223.56 358.96" />
					<path id="Layer" class="shp3" d="M436.59 358.96C436.59 358.96 445.57 368.83 434.2 368.83C423.99 368.83 223.97 368.83 223.97 368.83L222.81 368.83C222.81 368.83 22.79 368.83 12.58 368.83C1.45 368.83 10.54 358.96 10.54 358.96L436.59 358.96Z" />
				</g>
				<path id="Layer" class="shp4" d="M223.39 81.19C221.34 81.19 219.69 79.54 219.69 77.49C219.69 75.44 221.34 73.79 223.39 73.79C225.44 73.79 227.09 75.44 227.09 77.49C227.09 79.54 225.44 81.19 223.39 81.19Z" />
			</g>
		</g>
		<path id="Layer" class="shp5" d="M88.55 230.04L90.12 229.28" />
		<path id="Layer" class="shp5" d="M90.94 228.88L92.59 228.06" />
		<path id="Layer" class="shp5" d="M85.58 231.51L101.1 235.23" />
		<path id="Layer" class="shp5" d="M209.37 266.47C209.37 266.47 212.94 268.39 214.58 269.77" />
		<path id="Layer" class="shp5" d="M216.02 268.89L216.9 268.35" />
		<path id="Layer" class="shp5" d="M218.74 267.22L219.71 266.63" />
		<path id="Layer" class="shp5" d="M220.33 266.25L221.27 265.68" />
		<path id="Layer" class="shp5" d="M221.42 265.58L222.41 264.98" />
	</g>
	<g id="書">
		<g id="Layer">
			<g id="Layer">
				<path id="Layer" class="shp6" d="M367.53 233.71C367.53 234.12 367.25 234.48 366.86 234.6L238.7 271.77C238.14 271.94 237.7 272.37 237.52 272.93C237.35 273.49 237.47 274.1 237.85 274.55L239.25 276.23C237.06 276.7 230.61 277.92 223.39 277.92C216.18 277.92 209.72 276.7 207.53 276.23L208.94 274.55C209.31 274.1 209.43 273.49 209.26 272.93C209.09 272.37 208.65 271.94 208.08 271.77L79.92 234.6C79.53 234.48 79.25 234.12 79.25 233.71C79.25 233.06 79.55 232.46 80.07 232.07C80.59 231.68 81.24 231.55 81.86 231.73L82.47 231.91L82.75 231.99L213.25 270.01C213.32 270.03 213.38 270.05 213.43 270.09C213.45 270.11 213.47 270.12 213.49 270.14C213.53 270.18 213.58 270.22 213.62 270.27C213.69 270.35 213.74 270.44 213.76 270.54C213.82 270.77 213.76 271 213.61 271.18L211.36 273.89L211.76 274.21C211.85 274.28 214.08 275.96 223.17 275.96C232.23 275.96 234.88 274.31 234.98 274.24L235.45 273.93L233.17 271.18C233.01 270.99 232.96 270.74 233.03 270.5C233.07 270.38 233.14 270.28 233.22 270.19C233.3 270.11 233.41 270.04 233.53 270.01L363.2 232.23L364.06 231.98L364.3 231.91L364.92 231.73C365.54 231.55 366.2 231.68 366.72 232.07C367.23 232.46 367.53 233.06 367.53 233.71Z" />
				<path id="Layer" class="shp7" d="M214.36 269.77L214.33 269.78C214.41 269.85 214.48 269.93 214.55 270.01C214.49 269.93 214.43 269.85 214.36 269.77Z" />
			</g>
			<g id="Layer">
				<path id="Layer" class="shp8" d="" />
			</g>
			<g id="Layer">
				<g id="Layer">
					<path id="Layer" fill-rule="evenodd" class="shp7" d="M368.53 233.71C368.53 234.56 367.96 235.32 367.14 235.56L238.98 272.73C238.74 272.8 238.55 272.98 238.48 273.22C238.41 273.46 238.46 273.71 238.62 273.91L241.05 276.84L240.27 277.03C240.2 277.05 232.37 278.92 223.39 278.92C214.41 278.92 206.59 277.05 206.51 277.03L205.73 276.84L208.17 273.91C208.33 273.71 208.38 273.47 208.3 273.22C208.23 272.98 208.05 272.8 207.81 272.73L79.64 235.56C78.82 235.32 78.25 234.56 78.25 233.71C78.25 232.74 78.69 231.85 79.46 231.27C80.23 230.69 81.21 230.51 82.14 230.77L83.81 231.26L93.76 226.38L93.9 226.39C97.49 226.64 158.38 231.07 194.71 244.68C159.8 229.72 101.82 222.84 101 222.75L99.31 222.56L106.01 219.27L106.16 219.28C166.84 226.46 195.2 238.64 208.3 247.6C210.15 248.86 211.76 250.1 213.16 251.3C187.25 226.49 111.04 218.44 110.14 218.35L108.28 218.16L116.07 214.67L116.18 214.68C116.43 214.68 140.98 215.71 166.37 222.36C193.78 229.53 212.04 240.57 220.01 254.65C203.72 218.71 128.56 210.95 127.73 210.87L125.64 210.67L129.55 209.15L129.67 209.17C161.76 212.99 187.48 221.19 204.08 232.88C214.37 240.13 221.01 248.73 223.17 257.3C225.56 240.87 240.59 216.94 300.71 199.92L300.86 199.88L305 201.22L303.27 201.63C302.63 201.79 249.6 214.76 230.55 244.87C249.78 224.87 299.95 219.36 324.41 216.67C328.18 216.26 331.16 215.93 333.3 215.62L333.46 215.6L338.25 218.19L336.63 218.35C335.65 218.45 246.84 227.84 228.41 257.58C230.08 255.36 232.39 253.26 235.21 251.28C236.52 250.29 237.97 249.27 239.6 248.24C253.21 239.58 282.17 227.75 342.85 220.58L343.02 220.56L348.61 223.78L347.06 223.94C346.06 224.04 264.09 232.37 235.83 252.07C234.23 253.3 232.87 254.47 231.72 255.59C256.58 233.15 345.59 225.96 349.91 225.62L350.02 225.61L356.1 227.9L362.97 231.26L364.64 230.77C365.57 230.5 366.55 230.69 367.32 231.27C368.09 231.85 368.53 232.74 368.53 233.71ZM253.28 242.22C285.58 229.89 335.61 224.14 345.43 223.1L342.81 221.59C297.38 226.97 269.86 234.95 253.28 242.22ZM355.66 228.9C348.56 229.72 228.24 243.85 228.03 267.23L229.69 268.24L229.87 268.35L230.75 268.89L232.04 269.68L237.39 266.47C256.52 257.03 316.1 242.25 345.76 235.21L360.97 231.51L358.05 230.06L356.65 229.28L355.83 228.88C355.78 228.89 355.73 228.89 355.66 228.9ZM367.53 233.71C367.53 233.06 367.23 232.46 366.72 232.07C366.2 231.68 365.54 231.55 364.92 231.73L364.3 231.91L364.06 231.98L363.2 232.23L233.53 270.01C233.41 270.04 233.3 270.11 233.22 270.19C233.14 270.28 233.07 270.38 233.03 270.5C232.96 270.74 233.01 270.99 233.17 271.18L235.45 273.93L234.98 274.24C234.88 274.31 232.23 275.96 223.17 275.96C214.08 275.96 211.85 274.28 211.76 274.21L211.36 273.89L213.61 271.18C213.76 271 213.82 270.77 213.76 270.54C213.74 270.44 213.69 270.35 213.62 270.27C213.59 270.21 213.55 270.17 213.49 270.14C213.47 270.12 213.45 270.11 213.43 270.09C213.38 270.05 213.32 270.03 213.25 270.01L82.75 231.99L82.47 231.91L81.86 231.73C81.24 231.55 80.59 231.68 80.07 232.07C79.55 232.46 79.25 233.06 79.25 233.71C79.25 234.12 79.53 234.48 79.92 234.6L208.08 271.77C208.65 271.94 209.09 272.37 209.26 272.93C209.43 273.49 209.31 274.1 208.94 274.55L207.53 276.23C209.72 276.7 216.18 277.92 223.39 277.92C230.61 277.92 237.06 276.7 239.25 276.23L237.85 274.55C237.47 274.1 237.35 273.49 237.52 272.93C237.7 272.37 238.14 271.94 238.7 271.77L366.86 234.6C367.25 234.48 367.53 234.12 367.53 233.71ZM226.42 266.24L226.86 266.51C229.27 243.53 336.67 230.09 353.59 228.1L349.7 226.64C343.12 227.19 230.31 237 226.42 266.24ZM225.37 252.08C225.84 251.14 226.37 250.22 226.96 249.33C226.96 249.32 226.97 249.32 226.97 249.32C232.98 236.71 245.51 225.24 263.97 215.57C280.12 207.12 296.24 202.46 301.36 201.09L300.84 200.92C247.64 216.01 230.15 236.41 225.37 252.08ZM223.9 264.7L224.41 265.01C224.44 264.89 224.47 264.76 224.5 264.61C227.54 249.5 247.07 237 282.57 227.43C305.79 221.17 328.78 218.25 334.93 217.53L333.27 216.64C331.13 216.94 328.21 217.26 324.52 217.66C298.5 220.52 243.12 226.61 227.8 249.85C227.79 249.86 227.78 249.87 227.78 249.88C225.61 254.46 224.23 259.39 223.9 264.7ZM214.77 270.82C214.75 271.18 214.62 271.53 214.38 271.82L212.85 273.66C213.86 274.1 216.68 274.96 223.17 274.96C229.72 274.96 232.79 274.08 233.91 273.64L232.4 271.82C232.16 271.53 232.03 271.19 232.01 270.83L223.39 265.56L214.77 270.82ZM85.58 231.51L101.82 235.4C131.32 242.41 188.87 256.73 208.61 266.1C208.61 266.1 211.2 267.69 214.58 269.77L214.56 269.78L214.55 269.78C214.61 269.83 214.66 269.89 214.72 269.95C214.74 269.97 214.76 269.99 214.78 270.01C214.72 269.93 214.66 269.85 214.59 269.77L216.02 268.89C210.47 249.54 93.62 230.84 88.56 230.04L88.55 230.04L85.58 231.51ZM221.86 256.51C217.13 240.82 195.85 219.8 137.95 211.28C146.77 212.71 160.23 215.4 173.81 220.03C199.77 228.88 216.17 241.38 221.86 256.51ZM221.5 261.81C222.08 263.2 222.32 264.28 222.41 264.98L222.82 264.73C213.32 220.71 120.13 215.86 116.26 215.68L112.07 217.56C118.54 218.32 141.26 221.24 164.2 227.43C197.49 236.4 216.73 247.95 221.5 261.81ZM215.1 255.77C215.12 255.8 215.14 255.82 215.16 255.83C218.51 258.82 220.66 262.1 221.27 265.68L221.42 265.58C221.26 264.55 221.01 263.53 220.68 262.53C219.41 259.33 216.11 254.11 207.53 248.28C194.5 239.45 166.34 227.42 106.18 220.29L102.79 221.96C115.62 223.55 192.2 233.84 215.1 255.77ZM90.12 229.28C104.93 231.65 210.41 249.16 216.9 268.35L218.74 267.22L219.71 266.63L220.33 266.25C219.63 262.64 217.4 259.26 213.99 256.13L213.94 256.08C188.63 234.61 98.06 227.7 93.96 227.39L92.59 228.06L90.94 228.88L90.93 228.88L90.12 229.28ZM214.55 270.01C214.49 269.93 214.43 269.85 214.36 269.77L214.33 269.78C214.41 269.85 214.48 269.93 214.55 270.01ZM100.7 236.18L210.56 268.19C194.01 259.05 131.23 243.45 100.7 236.18ZM236.17 268.2L346.09 236.18C315.54 243.45 252.67 259.07 236.17 268.2Z" />
					<path id="Layer" class="shp9" d="M216.02 268.89L214.59 269.77L214.58 269.77C211.2 267.69 208.61 266.1 208.61 266.1C188.87 256.73 131.32 242.41 101.82 235.4L85.58 231.51L88.55 230.04L88.56 230.04C93.62 230.84 210.47 249.54 216.02 268.89Z" />
				</g>
				<g id="Layer">
					<path id="Layer" class="shp7" d="M214.55 270.01C214.48 269.93 214.41 269.85 214.33 269.78L214.36 269.77C214.43 269.85 214.49 269.93 214.55 270.01Z" />
				</g>
			</g>
			<g id="Layer">
				<g id="Layer">
					<path id="Layer" class="shp5" d="M353.59 228.1C336.67 230.09 229.27 243.53 226.86 266.51L226.42 266.24C230.31 237 343.12 227.19 349.7 226.64L353.59 228.1Z" />
				</g>
			</g>
			<g id="Layer">
				<g id="Layer">
					<path id="Layer" class="shp5" d="M214.78 270.01C214.76 269.99 214.74 269.97 214.72 269.95C214.67 269.89 214.62 269.83 214.56 269.78L214.58 269.77L214.59 269.77C214.66 269.85 214.72 269.93 214.78 270.01Z" />
				</g>
				<g id="Layer">
					<path id="Layer" class="shp7" d="M364.3 231.91L364.06 231.98L364.32 231.92L364.3 231.91ZM214.59 269.77L214.58 269.77C214.63 269.83 214.68 269.89 214.72 269.95C214.74 269.97 214.76 269.99 214.78 270.01C214.72 269.93 214.66 269.85 214.59 269.77ZM214.36 269.77L214.33 269.78C214.41 269.85 214.48 269.93 214.55 270.01C214.49 269.93 214.43 269.85 214.36 269.77ZM82.47 231.91L82.45 231.92L82.75 231.99L82.47 231.91Z" />
				</g>
				<g id="Layer">
					<path id="Layer" class="shp9" d="M345.43 223.1C335.61 224.14 285.58 229.89 253.28 242.22C269.86 234.95 297.38 226.97 342.81 221.59L345.43 223.1Z" />
				</g>
				<g id="Layer">
					<path id="Layer" class="shp9" d="M301.36 201.09C296.24 202.46 280.12 207.12 263.97 215.57C245.51 225.24 232.98 236.71 226.97 249.32C226.97 249.32 226.96 249.32 226.96 249.33C226.37 250.22 225.84 251.14 225.37 252.08C230.15 236.41 247.64 216.01 300.84 200.92L301.36 201.09Z" />
				</g>
				<g id="Layer">
					<path id="Layer" class="shp9" d="M334.93 217.53C328.78 218.25 305.79 221.17 282.57 227.43C247.07 237 227.54 249.5 224.5 264.61C224.47 264.76 224.44 264.89 224.41 265.01L223.9 264.7C224.23 259.39 225.61 254.46 227.78 249.88C227.78 249.87 227.79 249.86 227.8 249.85C243.12 226.61 298.5 220.52 324.52 217.66C328.21 217.26 331.13 216.94 333.27 216.64L334.93 217.53Z" />
				</g>
				<g id="Layer">
					<path id="Layer" class="shp9" d="M353.59 228.1C336.67 230.09 229.27 243.53 226.86 266.51L226.42 266.24C230.31 237 343.12 227.19 349.7 226.64L353.59 228.1Z" />
				</g>
				<g id="Layer">
					<path id="Layer" class="shp9" d="M221.86 256.51C216.17 241.38 199.77 228.88 173.81 220.03C160.23 215.4 146.77 212.71 137.95 211.28C195.85 219.8 217.13 240.82 221.86 256.51Z" />
				</g>
				<g id="Layer">
					<path id="Layer" class="shp9" d="M222.82 264.73L222.41 264.98C222.32 264.28 222.08 263.2 221.5 261.81C216.73 247.95 197.49 236.4 164.2 227.43C141.26 221.24 118.54 218.32 112.07 217.56L116.26 215.68C120.13 215.86 213.32 220.71 222.82 264.73Z" />
				</g>
				<g id="Layer">
					<path id="Layer" class="shp9" d="M221.42 265.58L221.27 265.68C220.66 262.1 218.51 258.82 215.16 255.83C215.14 255.82 215.12 255.8 215.1 255.77C192.2 233.84 115.62 223.55 102.79 221.96L106.18 220.29C166.34 227.42 194.5 239.45 207.53 248.28C216.11 254.11 219.41 259.33 220.68 262.53C221.01 263.53 221.26 264.55 221.42 265.58Z" />
				</g>
				<g id="Layer">
					<path id="Layer" class="shp9" d="M220.33 266.25L219.71 266.63L218.74 267.22L216.9 268.35C210.41 249.16 104.93 231.65 90.12 229.28L90.93 228.88L90.94 228.88L92.59 228.06L93.96 227.39C98.06 227.7 188.63 234.61 213.94 256.08L213.99 256.13C217.4 259.26 219.63 262.64 220.33 266.25Z" />
				</g>
			</g>
			<g id="Layer">
			</g>
		</g>
		<path id="Layer" class="shp5" d="M216.02 268.89L216.9 268.35" />
		<path id="Layer" class="shp5" d="" />
		<path id="Layer" class="shp9" d="M360.97 231.51L345.76 235.21C316.1 242.25 256.52 257.03 237.39 266.47L232.04 269.68L230.75 268.89L229.87 268.35L229.69 268.24L228.03 267.23C228.24 243.85 348.56 229.72 355.66 228.9C355.73 228.89 355.78 228.89 355.83 228.88L356.65 229.28L358.05 230.06L360.97 231.51Z" />
	</g>
	<g id="燈泡">
		<g id="Layer">
			<g id="Layer">
				<g id="Layer">
					<path id="Layer" fill-rule="evenodd" class="shp10" d="" />
				</g>
				<g id="Layer">
					<path id="Layer" fill-rule="evenodd" class="shp10" d="M252.66 143.61C252.66 144.04 252.72 154.1 246.56 162.43C240.6 170.51 239.73 176.86 239.72 176.92C239.59 185.2 238.12 188.33 236.92 189.48C236.63 189.75 236.36 189.91 236.15 190C236.15 190.51 236.14 191.31 236.14 191.85C236.11 194.22 234.96 194.67 234.83 194.72L233.92 195.15C235.51 195.71 236.18 196.26 236.14 196.95C236.09 197.83 234.79 198.29 233.93 198.51L233.93 198.59C234.86 198.98 235.91 199.58 235.88 200.5C235.85 201.38 234.79 201.95 234.07 202.24C234.97 202.73 235.9 203.4 235.78 204.27C235.67 205.09 234.65 205.53 233.89 205.75C235.03 206.25 235.58 206.83 235.57 207.51C235.56 208.55 234.18 209.26 233.43 209.57C234.05 210.16 234.12 210.74 234.05 211.13C233.81 212.58 231.41 213.56 230.84 213.77C227.56 216.6 223.56 216.64 223.39 216.64C223.22 216.64 219.22 216.6 215.94 213.77C215.37 213.56 212.97 212.58 212.73 211.13C212.67 210.74 212.73 210.16 213.35 209.57C212.61 209.26 211.22 208.55 211.21 207.51C211.21 206.83 211.76 206.25 212.89 205.75C212.14 205.53 211.12 205.09 211.01 204.27C210.89 203.4 211.81 202.73 212.71 202.24C212 201.95 210.94 201.38 210.91 200.5C210.87 199.58 211.93 198.98 212.86 198.59L212.86 198.51C212 198.29 210.7 197.83 210.65 196.95C210.61 196.26 211.28 195.71 212.87 195.16L211.9 194.69C211.83 194.67 210.67 194.22 210.65 191.85C210.64 191.31 210.64 190.51 210.64 190C210.42 189.91 210.16 189.75 209.87 189.48C208.67 188.33 207.2 185.2 207.06 176.87C207.06 176.86 206.19 170.51 200.22 162.43C194.07 154.1 194.12 144.04 194.13 143.62C194.14 143.34 195.32 116.96 223.39 116.7C251.47 116.96 252.65 143.34 252.66 143.61ZM235.15 190.18C233.45 190.4 228.23 191.02 223.39 191.02C218.55 191.02 213.33 190.4 211.64 190.18C211.64 190.51 211.64 191.02 211.65 191.84C211.66 193.47 212.29 193.77 212.3 193.78L213.96 194.57L213.96 195.85L213.61 195.96C211.81 196.53 211.65 196.91 211.64 196.93C211.74 197.09 212.62 197.45 213.46 197.61L213.86 197.69L213.86 199.28L213.54 199.4C212.23 199.9 211.9 200.31 211.91 200.46C211.92 200.76 212.81 201.26 213.57 201.49L213.93 201.59L213.93 202.76L213.64 202.9C212.25 203.56 211.98 204.01 212 204.13C212.03 204.38 212.89 204.77 213.74 204.92L214.15 204.99L214.15 206.34L213.82 206.46C212.25 207.02 212.21 207.46 212.21 207.5C212.22 207.88 213.19 208.47 214.07 208.77L214.4 208.89L214.4 210L214.21 210.15C213.84 210.44 213.68 210.71 213.72 210.97C213.85 211.74 215.56 212.57 216.37 212.86L216.53 212.95C219.54 215.6 223.33 215.64 223.39 215.64C223.44 215.64 227.26 215.59 230.25 212.95L230.42 212.86C231.45 212.49 232.95 211.67 233.07 210.96C233.11 210.71 232.94 210.44 232.57 210.15L232.38 210L232.38 208.89L232.72 208.77C233.59 208.47 234.57 207.88 234.57 207.5C234.57 207.46 234.53 207.02 232.97 206.46L232.64 206.34L232.64 204.99L233.05 204.92C233.89 204.77 234.76 204.38 234.79 204.13C234.81 204.01 234.54 203.56 233.15 202.9L232.86 202.76L232.86 201.59L233.22 201.49C233.98 201.26 234.87 200.76 234.88 200.46C234.89 200.31 234.55 199.9 233.25 199.4L232.93 199.28L232.93 197.69L233.33 197.61C234.16 197.45 235.04 197.09 235.14 196.88C235.14 196.88 234.97 196.53 233.18 195.96L232.83 195.85L232.83 194.57L234.46 193.79C234.5 193.77 235.12 193.47 235.14 191.84C235.15 191.02 235.15 190.5 235.15 190.18ZM251.66 143.63C251.62 142.59 250.49 117.95 223.39 117.7C196.3 117.95 195.16 142.59 195.13 143.64C195.13 143.73 195.08 153.78 201.03 161.84C207.16 170.15 208.03 176.53 208.06 176.8C208.26 188.74 211.13 189.11 211.16 189.12L211.22 189.12C211.23 189.12 211.41 189.15 211.72 189.19C213.33 189.4 218.57 190.02 223.39 190.02C228.26 190.02 233.53 189.39 235.11 189.18C235.4 189.15 235.56 189.12 235.57 189.12L235.65 189.12C235.66 189.11 238.53 188.74 238.72 176.85C238.76 176.53 239.62 170.15 245.76 161.84C251.71 153.78 251.66 143.73 251.66 143.63Z" />
				</g>
				<g id="Layer">
					<path id="Layer" class="shp10" d="M218.69 187.09L218.19 187.11L218.19 187.09L218.69 187.09Z" />
				</g>
				<g id="Layer">
					<path id="Layer" class="shp10" d="M217.19 142.13C217.23 142.14 222.45 143.81 229.6 142.13L229.6 142.13C229.62 142.14 229.89 142.29 230.22 142.63C233.39 145.16 236.45 146.03 237.43 146.26C238.26 144.95 238.66 144.79 239.04 144.99C239.55 145.24 239.91 145.42 236.99 152.75L236.06 152.38C237.03 149.93 237.6 148.36 237.93 147.36C236.46 149.93 225.58 169.17 227.3 175.6C228.44 179.86 228.9 183.9 228.61 186.99L228.6 187.11L227.6 187.09C227.6 187.06 227.6 187 227.61 186.89C227.9 183.92 227.45 180.01 226.34 175.86C224.55 169.18 234.81 150.79 236.89 147.16C235.84 146.89 233.74 146.21 231.37 144.69C231.4 144.81 231.43 144.94 231.46 145.08C232.07 148.17 230.38 152.28 226.44 157.3L225.93 168.54L224.94 168.5L225.45 156.93L225.55 156.81C230.29 150.81 230.85 147.25 230.49 145.31C230.31 144.35 229.89 143.74 229.56 143.39C229.45 143.29 229.33 143.2 229.22 143.1L229.21 143.1C226.78 143.65 224.69 143.84 222.95 143.84C220.09 143.84 218.21 143.34 217.54 143.12C217.43 143.22 217.33 143.3 217.22 143.39C216.89 143.74 216.48 144.35 216.3 145.31C215.93 147.25 216.49 150.81 221.23 156.81L221.33 156.93L221.85 168.5L220.85 168.54L220.35 157.3C216.4 152.28 214.72 148.17 215.33 145.08C215.35 144.94 215.38 144.81 215.42 144.69C213.04 146.21 210.95 146.89 209.9 147.16C211.97 150.79 222.24 169.18 220.45 175.86C219.34 180.01 218.89 183.92 219.18 186.89C219.19 187 219.19 187.06 219.19 187.09L218.19 187.09L218.18 186.99C217.88 183.9 218.35 179.86 219.48 175.6C221.21 169.17 210.34 149.95 208.85 147.36C209.18 148.36 209.76 149.93 210.73 152.38L209.8 152.75C206.88 145.42 207.24 145.24 207.74 144.99C208.13 144.79 208.53 144.95 209.36 146.25C210.35 146.03 213.41 145.15 216.57 142.63C216.9 142.29 217.17 142.14 217.19 142.13L217.19 142.13Z" />
				</g>
			</g>
			<g id="Layer">
				<path id="Layer" class="shp10" d="M222.81 95.07L223.98 95.07L223.98 110.58L222.81 110.58L222.81 95.07Z" />
				<path id="Layer" class="shp11" d="M201.64 102.28L202.67 101.73L208.39 112.39L207.36 112.94L201.64 102.28Z" />
				<path id="Layer" class="shp11" d="M238.39 112.38L244.11 101.72L245.14 102.27L239.42 112.94L238.39 112.38Z" />
			</g>
		</g>
	</g>
	<g id="圖層_4">
	</g>
</svg>